<?xml version="1.0" encoding="UTF-8"?>
<svg id="Layer_1" xmlns="http://www.w3.org/2000/svg" version="1.1" viewBox="0 0 621.06 574.24">
  <!-- Generator: Adobe Illustrator 29.1.0, SVG Export Plug-In . SVG Version: 2.1.0 Build 142)  -->
  <defs>
    <style>
      .st0 {
        fill: #face22;
      }

      .st1 {
        fill: #fff;
      }

      .st2 {
        fill: #231f20;
      }

      .st3 {
        stroke-width: 4px;
      }

      .st3, .st4, .st5 {
        fill: none;
        stroke: #231f20;
        stroke-miterlimit: 10;
      }

      .st6 {
        fill: #ec1e25;
      }

      .st4 {
        stroke-width: 3px;
      }
    </style>
  </defs>
  <g>
    <g>
      <path class="st1" d="M-129.96,515.84c-6.74,2.29-14.55,3.98-22.87,3.98-9.16,0-17.8-2.14-25.1-4.88h0c7.3,2.74,15.94,4.88,25.1,4.88,8.32,0,16.13-1.69,22.87-3.98,6.31-2.12,11.67-4.76,15.65-7.01,2.12-1.19,3.84-2.27,5.1-3.11h.01c.06.61.11,1.23.15,1.88-.04-.64-.09-1.27-.15-1.88h-.01c-1.26.84-2.98,1.92-5.1,3.11-3.98,2.25-9.34,4.89-15.65,7.01Z"/>
      <path class="st1" d="M-41.9,353.29c-.7,0-1.38.06-2.05.15.18-.92.28-1.88.28-2.86,0-8.19-6.63-14.82-14.82-14.82s-14.82,6.63-14.82,14.82c0,4.01,1.59,7.63,4.17,10.3l-22.86,21.2c.68,1.15,1.31,2.32,1.91,3.51.6,1.19,1.17,2.39,1.7,3.62,2.44,5.57,4.14,11.52,4.99,17.74l30.67-28.73c2.7,2.9,6.55,4.72,10.83,4.72,8.18,0,14.82-6.63,14.82-14.82s-6.64-14.82-14.82-14.82h0Z"/>
      <path class="st1" d="M-214.59,381.92l-22.86-21.22c2.58-2.66,4.18-6.29,4.18-10.3,0-8.19-6.64-14.82-14.83-14.82s-14.82,6.63-14.82,14.82c0,.98.1,1.94.28,2.87-.67-.1-1.35-.16-2.04-.16-8.19,0-14.83,6.63-14.83,14.82s6.64,14.82,14.83,14.82c4.28,0,8.12-1.82,10.83-4.72l30.61,28.62c.86-6.11,2.55-11.96,4.95-17.44,1.08-2.51,2.32-4.94,3.7-7.29h0Z"/>
      <path class="st1" d="M-65.04,507.22c-4.28,0-8.13,1.82-10.83,4.72l-39.97-37.32h0c-.44.28-.89.55-1.34.81,0,.04,2.19,6.04,4.8,15.83.77,2.86,1.57,6.03,2.37,9.48.34,1.48.62,3.15.8,4.98h.01c.06.61.11,1.24.15,1.88.12,1.92.13,3.98,0,6.12l16.76,15.55c-2.58,2.67-4.17,6.29-4.17,10.3,0,8.19,6.63,14.82,14.82,14.82s14.82-6.63,14.82-14.82c0-.98-.1-1.94-.28-2.86.67.09,1.35.15,2.05.15,8.18,0,14.82-6.63,14.82-14.82s-6.64-14.82-14.82-14.82h0Z"/>
      <path class="st1" d="M-197.53,504.85c.06-1.53.15-2.88.23-4,.26-3.63,1.04-7.51,1.99-11.13,2.11-8.01,5.05-14.75,5.05-14.75-.28-.17-.56-.34-.84-.51h0l-40.61,37.04c-2.7-2.9-6.55-4.72-10.83-4.72-8.18,0-14.82,6.63-14.82,14.82s6.64,14.82,14.82,14.82c.7,0,1.38-.06,2.05-.15-.18.92-.28,1.88-.28,2.86,0,8.19,6.63,14.82,14.82,14.82s14.83-6.63,14.83-14.82c0-4.01-1.6-7.64-4.18-10.3l17.81-16.52c-.15-2.76-.12-5.29-.03-7.46h0Z"/>
      <path class="st0" d="M-88.38,389.21h0c-.53-1.23-1.09-2.43-1.7-3.62-.6-1.19-1.24-2.35-1.91-3.5-12.15-20.8-35.07-34.82-61.34-34.82s-49.08,13.94-61.26,34.65c-1.38,2.35-2.62,4.78-3.7,7.29H-88.38ZM-116.81,369.9c.6-.92,1.83-1.19,2.75-.59.28.18,6.92,4.57,8.31,14.58.15,1.09-.61,2.1-1.71,2.26-.09.01-.19.02-.28.02-.98,0-1.84-.72-1.98-1.73-1.13-8.12-6.3-11.63-6.52-11.78-.92-.61-1.18-1.84-.58-2.76h.01ZM-127.08,374.1c.85-.71,2.11-.58,2.82.27.11.13,2.71,3.33,3.34,8.62.13,1.1-.65,2.09-1.75,2.22-.08,0-.16.01-.24.01-1,0-1.86-.75-1.98-1.76-.49-4.08-2.44-6.52-2.46-6.55-.7-.85-.58-2.11.27-2.82h0ZM-177.06,381c1.65-3.49,3.61-6.15,3.69-6.26.66-.89,1.91-1.07,2.8-.42.89.66,1.08,1.91.42,2.8-.02.02-1.82,2.48-3.29,5.6-.34.72-1.06,1.14-1.81,1.14-.29,0-.58-.06-.86-.19-1-.47-1.42-1.67-.95-2.66h0ZM-178.52,370.82c.84.71.95,1.98.24,2.82-1.6,1.9-6,7.56-7.11,10.97-.27.85-1.06,1.38-1.9,1.38-.2,0-.41-.03-.62-.1-1.05-.34-1.63-1.47-1.29-2.52,1.57-4.86,7.6-12.02,7.86-12.32.71-.84,1.97-.95,2.82-.23h0ZM-199.93,380.05c3.47-6.52,10.12-12.73,10.4-13,.81-.75,2.07-.71,2.83.1.75.81.71,2.07-.1,2.83-.06.06-6.45,6.03-9.6,11.95-.36.68-1.05,1.06-1.77,1.06-.32,0-.64-.08-.94-.24-.97-.52-1.34-1.73-.82-2.71h0Z"/>
      <path class="st1" d="M-88.38,389.21h0c-.53-1.23-1.1-2.43-1.7-3.62.6,1.19,1.17,2.39,1.7,3.61h0Z"/>
      <path class="st6" d="M-88.38,389.21h-129.91c-2.4,5.48-4.09,11.33-4.95,17.44-.2,1.37-.36,2.76-.46,4.17H-82.98h-140.73H-82.97c-.1-1.3-.24-2.59-.42-3.87h0c-.85-6.22-2.55-12.17-4.99-17.74h0Z"/>
      <path class="st1" d="M-88.38,389.21c2.44,5.57,4.14,11.52,4.99,17.74h0c-.85-6.22-2.55-12.17-4.99-17.74h0Z"/>
      <path class="st1" d="M-152.83,485.14c-.17.01-.33.01-.5.01-6.57,0-12.93-.88-18.96-2.52l-2.84,16.29c6.53,2.03,14.11,3.52,22.3,3.52v-17.3h0Z"/>
      <path class="st1" d="M-152.83,485.14h0v17.3c7.35,0,14.14-1.12,20.08-2.73l-2.9-16.74h0c-5.5,1.38-11.25,2.14-17.18,2.17Z"/>
      <path class="st1" d="M-118.03,475.92c-5.45,3.08-11.37,5.47-17.62,7.05l2.9,16.74c6.61-1.78,12.16-4.15,16.29-6.23h0c1.58-.8,2.95-1.56,4.08-2.22-2.61-9.79-4.79-15.79-4.8-15.83h0c-.28.17-.56.33-.85.49h0Z"/>
      <path class="st1" d="M-190.26,474.97c.33.2.67.4,1.01.59,5.25,3.05,10.94,5.44,16.96,7.07h0c6.03,1.64,12.39,2.52,18.96,2.52.17,0,.33,0,.5-.01,5.93-.03,11.68-.79,17.18-2.17,6.25-1.58,12.17-3.97,17.62-7.05.29-.16.57-.32.85-.49.45-.26.9-.53,1.34-.81h0c18.22-11.17,30.84-30.26,32.81-52.32h-140.61c1.96,21.95,14.46,40.95,32.53,52.16h0,0,0c.28.17.56.34.84.51h0ZM-126.01,427.64c10.14,0,18.35,8.37,18.35,18.68s-8.22,18.68-18.35,18.68-18.35-8.37-18.35-18.68,8.22-18.68,18.35-18.68ZM-152.98,463.96c4.14,0,7.5,2.51,7.5,5.61s-3.36,5.61-7.5,5.61-7.5-2.51-7.5-5.61,3.36-5.61,7.5-5.61ZM-198.59,446.32c0-10.32,8.22-18.68,18.35-18.68s18.35,8.37,18.35,18.68-8.22,18.68-18.35,18.68-18.35-8.37-18.35-18.68Z"/>
      <path class="st1" d="M-117.18,475.43h0c.45-.26.9-.53,1.34-.81h0c-.44.28-.89.55-1.34.81Z"/>
      <path class="st1" d="M-153.33,485.15c.17,0,.33,0,.5-.01h-.5c-6.57,0-12.93-.88-18.96-2.52h0c6.03,1.64,12.39,2.52,18.96,2.52h0Z"/>
      <path class="st1" d="M-152.83,485.14c5.93-.03,11.68-.79,17.18-2.17h0c-5.5,1.38-11.25,2.14-17.18,2.17h0Z"/>
      <path class="st1" d="M-118.03,475.92c-5.45,3.08-11.37,5.47-17.62,7.05h0c6.25-1.58,12.17-3.97,17.62-7.05.29-.16.57-.32.85-.49h0c-.28.17-.56.33-.85.49h0Z"/>
      <path class="st1" d="M-175.13,498.92h0l2.84-16.29c-6.02-1.63-11.71-4.02-16.96-7.07-.34-.19-.68-.39-1.01-.59,0,0-2.94,6.74-5.05,14.75,1.15.72,2.63,1.59,4.4,2.55,3.95,2.13,9.36,4.65,15.78,6.65h0Z"/>
      <polygon class="st1" points="-175.13 498.92 -172.29 482.63 -172.29 482.63 -175.13 498.92 -175.13 498.92"/>
      <path class="st1" d="M-177.93,514.94l2.8-16.02c-6.42-2-11.83-4.52-15.78-6.65-1.77-.96-3.25-1.83-4.4-2.55-.95,3.62-1.73,7.5-1.99,11.13-.08,1.12-.17,2.47-.23,4,1.17.79,2.8,1.84,4.81,3.03,3.74,2.19,8.82,4.82,14.79,7.06h0Z"/>
      <path class="st1" d="M-116.46,493.48c-4.13,2.08-9.68,4.45-16.29,6.23l2.79,16.13c6.31-2.12,11.67-4.76,15.65-7.01,2.12-1.19,3.84-2.27,5.1-3.11-.18-1.83-.46-3.5-.8-4.98-.8-3.45-1.6-6.62-2.37-9.48-1.13.66-2.5,1.42-4.08,2.21h0Z"/>
      <path class="st1" d="M-152.83,519.82c8.32,0,16.13-1.69,22.87-3.98l-2.79-16.13c-5.94,1.61-12.73,2.73-20.08,2.73v17.38Z"/>
      <path class="st1" d="M-175.13,498.92h0l-2.8,16.02c7.3,2.74,15.94,4.88,25.1,4.88v-17.38c-8.19,0-15.77-1.49-22.3-3.52Z"/>
      <polygon class="st1" points="-175.13 498.92 -175.13 498.92 -175.13 498.92 -175.13 498.92 -175.13 498.92"/>
      <polygon class="st1" points="-175.13 498.92 -177.93 514.94 -177.93 514.94 -175.13 498.92 -175.13 498.92"/>
      <path class="st1" d="M-109.05,507.6c-.04-.64-.09-1.27-.15-1.88h-.01c-1.26.84-2.98,1.92-5.1,3.11-3.98,2.25-9.34,4.89-15.65,7.01-6.74,2.29-14.55,3.98-22.87,3.98-9.16,0-17.8-2.14-25.1-4.88-5.97-2.24-11.05-4.87-14.79-7.06-2.01-1.19-3.64-2.24-4.81-3.03-.09,2.17-.12,4.7.03,7.46h0c.81,16.37,7.48,40.31,42.67,40.31s44.81-21.91,45.79-38.9h0c.13-2.14.11-4.2,0-6.12h-.01Z"/>
      <path class="st1" d="M-109.05,507.6c.12,1.92.13,3.98,0,6.12h0c.13-2.14.11-4.2,0-6.12Z"/>
      <path class="st0" d="M-252.66,410.82c-1.58,0-3.02.64-4.05,1.68-1.04,1.04-1.68,2.48-1.68,4.06,0,3.17,2.56,5.74,5.73,5.74H-50.95c1.59,0,3.02-.64,4.05-1.68,1.04-1.04,1.68-2.48,1.68-4.06,0-3.17-2.56-5.74-5.73-5.74h-201.71Z"/>
      <ellipse class="st1" cx="-180.24" cy="446.32" rx="18.35" ry="18.68"/>
      <ellipse class="st1" cx="-126.01" cy="446.32" rx="18.35" ry="18.68"/>
      <ellipse class="st1" cx="-152.98" cy="469.57" rx="7.5" ry="5.61"/>
      <path class="st1" d="M-199.11,382.76c.3.16.62.24.94.24.72,0,1.41-.38,1.77-1.06,3.15-5.92,9.53-11.89,9.6-11.95.81-.75.85-2.02.1-2.83s-2.02-.85-2.83-.1c-.28.26-6.93,6.48-10.4,13-.52.97-.15,2.19.82,2.71h0Z"/>
      <path class="st1" d="M-187.92,385.89c.2.07.41.1.62.1.84,0,1.63-.54,1.9-1.38,1.11-3.41,5.51-9.08,7.11-10.97.71-.84.61-2.1-.24-2.82-.84-.71-2.11-.61-2.82.23-.26.3-6.29,7.46-7.86,12.32-.34,1.05.24,2.18,1.29,2.52h0Z"/>
      <path class="st1" d="M-176.11,383.67c.28.13.57.19.86.19.75,0,1.47-.42,1.81-1.14,1.48-3.12,3.28-5.57,3.29-5.6.66-.89.47-2.14-.42-2.8-.89-.66-2.14-.47-2.8.42-.08.11-2.04,2.77-3.69,6.26-.47,1-.05,2.19.95,2.66h0Z"/>
      <path class="st1" d="M-124.89,383.46c.12,1.02.98,1.76,1.98,1.76.08,0,.16,0,.24-.01,1.1-.13,1.88-1.13,1.75-2.22-.64-5.3-3.23-8.49-3.34-8.62-.7-.85-1.96-.97-2.82-.27-.85.7-.97,1.96-.27,2.82.02.02,1.97,2.47,2.46,6.55h0Z"/>
      <path class="st1" d="M-116.23,372.67c.22.15,5.4,3.65,6.52,11.78.14,1,1,1.73,1.98,1.73.09,0,.18,0,.28-.02,1.09-.15,1.86-1.16,1.71-2.26-1.39-10.01-8.03-14.4-8.31-14.58-.92-.6-2.15-.33-2.75.59-.6.92-.34,2.16.58,2.76h0Z"/>
    </g>
    <g>
      <path class="st4" d="M-27.12,368.11c0,8.19-6.64,14.82-14.82,14.82-4.28,0-8.13-1.82-10.83-4.72l-30.67,28.73c-.85-6.22-2.55-12.17-4.99-17.74-1.06-2.45-2.26-4.82-3.61-7.12l22.86-21.2c-2.58-2.67-4.17-6.29-4.17-10.3,0-8.19,6.63-14.82,14.82-14.82s14.82,6.63,14.82,14.82c0,.98-.1,1.94-.28,2.86.67-.09,1.35-.15,2.05-.15,8.18,0,14.82,6.63,14.82,14.82h0Z"/>
      <path class="st4" d="M-214.64,381.92c-1.38,2.35-2.62,4.78-3.7,7.29-2.4,5.48-4.09,11.33-4.95,17.44l-30.61-28.62c-2.71,2.9-6.55,4.72-10.83,4.72-8.19,0-14.83-6.63-14.83-14.82s6.64-14.82,14.83-14.82c.69,0,1.37.06,2.04.16-.18-.93-.28-1.89-.28-2.87,0-8.19,6.64-14.82,14.82-14.82s14.83,6.63,14.83,14.82c0,4.01-1.6,7.64-4.18,10.3l22.86,21.22h0Z"/>
      <path class="st4" d="M-50.27,522.04c0,8.19-6.64,14.82-14.82,14.82-.7,0-1.38-.06-2.05-.15.18.92.28,1.88.28,2.86,0,8.19-6.63,14.82-14.82,14.82s-14.82-6.63-14.82-14.82c0-4.01,1.59-7.63,4.17-10.3l-16.76-15.55c.17-2.85.09-5.56-.16-8h0c-.18-1.83-.46-3.5-.8-4.98-.8-3.45-1.6-6.62-2.37-9.48-2.62-9.82-4.8-15.83-4.8-15.83.45-.26.9-.53,1.34-.81l39.97,37.32c2.7-2.9,6.55-4.72,10.83-4.72,8.18,0,14.82,6.63,14.82,14.82h0Z"/>
      <path class="st4" d="M-190.31,474.97s-2.94,6.74-5.05,14.75c-.95,3.62-1.73,7.5-1.99,11.13-.08,1.12-.17,2.47-.23,4-.09,2.17-.12,4.7.03,7.46l-17.81,16.52c2.58,2.66,4.18,6.29,4.18,10.3,0,8.19-6.64,14.82-14.83,14.82s-14.82-6.63-14.82-14.82c0-.98.1-1.94.28-2.86-.67.09-1.35.15-2.05.15-8.18,0-14.82-6.63-14.82-14.82s6.64-14.82,14.82-14.82c4.28,0,8.13,1.82,10.83,4.72l40.61-37.04h0c.28.17.56.34.84.51h0Z"/>
      <line class="st4" x1="-191.15" y1="474.45" x2="-191.16" y2="474.46"/>
      <path class="st4" d="M-88.43,389.21h-129.91c1.08-2.51,2.32-4.94,3.7-7.29,12.18-20.71,35.05-34.65,61.26-34.65s49.19,14.02,61.34,34.82c1.35,2.3,2.55,4.67,3.61,7.12h0Z"/>
      <path class="st4" d="M-83.02,410.82h-140.73c.1-1.41.26-2.8.46-4.17.86-6.11,2.55-11.96,4.95-17.44H-88.43c2.44,5.57,4.14,11.52,4.99,17.74.18,1.28.32,2.57.42,3.87h0Z"/>
      <path class="st4" d="M-152.88,485.14v17.3c-8.19,0-15.77-1.49-22.3-3.52l2.84-16.29c6.03,1.64,12.39,2.52,18.96,2.52.17,0,.33,0,.5-.01h0Z"/>
      <path class="st4" d="M-132.8,499.71c-5.94,1.61-12.73,2.73-20.08,2.73v-17.3c5.93-.03,11.68-.79,17.18-2.17l2.9,16.74Z"/>
      <path class="st4" d="M-112.43,491.26c-1.13.66-2.5,1.42-4.08,2.21h0c-4.13,2.09-9.68,4.46-16.29,6.24l-2.9-16.74c6.25-1.58,12.17-3.97,17.62-7.05.29-.16.57-.32.85-.49,0,0,2.18,6.01,4.8,15.83h0Z"/>
      <path class="st4" d="M-83.08,422.3c-1.97,22.06-14.59,41.15-32.81,52.32-.44.28-.89.55-1.34.81-.28.17-.56.33-.85.49-5.45,3.08-11.37,5.47-17.62,7.05-5.5,1.38-11.25,2.14-17.18,2.17-.17.01-.33.01-.5.01-6.57,0-12.93-.88-18.96-2.52-6.02-1.63-11.71-4.02-16.96-7.07-.34-.19-.68-.39-1.01-.59-.28-.17-.56-.34-.84-.51h0c-18.07-11.21-30.57-30.21-32.53-52.16H-83.08Z"/>
      <line class="st5" x1="-83.02" y1="410.81" x2="-223.75" y2="410.81"/>
      <path class="st4" d="M-172.34,482.63l-2.84,16.29c-6.42-2-11.83-4.52-15.78-6.65-1.77-.96-3.25-1.83-4.4-2.55,2.11-8.01,5.05-14.75,5.05-14.75.33.2.67.4,1.01.59,5.25,3.05,10.94,5.44,16.96,7.07h0Z"/>
      <path class="st4" d="M-175.18,498.92l-2.8,16.02c-5.97-2.24-11.05-4.87-14.79-7.06-2.01-1.19-3.64-2.24-4.81-3.03.06-1.53.15-2.88.23-4,.26-3.63,1.04-7.51,1.99-11.13,1.15.72,2.63,1.59,4.4,2.55,3.95,2.13,9.36,4.65,15.78,6.65Z"/>
      <path class="st4" d="M-109.26,505.72c-1.26.84-2.98,1.92-5.1,3.11-3.98,2.25-9.34,4.89-15.65,7.01l-2.79-16.13c6.61-1.78,12.16-4.15,16.29-6.23h0c1.58-.8,2.95-1.56,4.08-2.22.77,2.86,1.57,6.03,2.37,9.48.34,1.48.62,3.15.8,4.98Z"/>
      <path class="st4" d="M-130.01,515.84c-6.74,2.29-14.55,3.98-22.87,3.98v-17.38c7.35,0,14.14-1.12,20.08-2.73l2.79,16.13Z"/>
      <path class="st4" d="M-152.88,502.44v17.38c-9.16,0-17.8-2.14-25.1-4.88l2.8-16.02c6.53,2.03,14.11,3.52,22.3,3.52Z"/>
      <path class="st4" d="M-109.09,513.72c-.98,16.99-10.75,38.9-45.79,38.9s-41.86-23.94-42.67-40.3h0c-.15-2.77-.12-5.3-.03-7.47,1.17.79,2.8,1.84,4.81,3.03,3.74,2.19,8.82,4.82,14.79,7.06,7.3,2.74,15.94,4.88,25.1,4.88,8.32,0,16.13-1.69,22.87-3.98,6.31-2.12,11.67-4.76,15.65-7.01,2.12-1.19,3.84-2.27,5.1-3.11h.01c.25,2.44.33,5.15.16,8h0Z"/>
      <path class="st3" d="M-45.27,416.56c0,1.58-.64,3.02-1.68,4.06-1.03,1.04-2.46,1.68-4.05,1.68h-201.71c-3.17,0-5.73-2.57-5.73-5.74,0-1.58.64-3.02,1.68-4.06,1.03-1.04,2.47-1.68,4.05-1.68H-51c3.17,0,5.73,2.57,5.73,5.74Z"/>
    </g>
    <ellipse class="st2" cx="-180.29" cy="446.32" rx="18.35" ry="18.68"/>
    <ellipse class="st2" cx="-126.06" cy="446.32" rx="18.35" ry="18.68"/>
    <ellipse class="st2" cx="-153.02" cy="469.57" rx="7.5" ry="5.61"/>
    <path class="st2" d="M-198.21,382.99c-.32,0-.64-.08-.94-.24-.97-.52-1.34-1.73-.82-2.71,3.47-6.52,10.12-12.73,10.4-13,.81-.75,2.07-.71,2.83.1.75.81.71,2.07-.1,2.83-.06.06-6.45,6.03-9.6,11.95-.36.68-1.05,1.06-1.77,1.06h0Z"/>
    <path class="st2" d="M-187.34,385.99c-.2,0-.41-.03-.62-.1-1.05-.34-1.63-1.47-1.29-2.52,1.57-4.86,7.6-12.02,7.86-12.32.71-.84,1.97-.95,2.82-.23.84.71.95,1.98.24,2.82-1.6,1.9-6,7.56-7.11,10.97-.27.85-1.06,1.38-1.9,1.38h0Z"/>
    <path class="st2" d="M-175.3,383.86c-.29,0-.58-.06-.86-.19-1-.47-1.42-1.67-.95-2.66,1.65-3.49,3.61-6.15,3.69-6.26.66-.89,1.91-1.07,2.8-.42.89.66,1.08,1.91.42,2.8-.02.02-1.82,2.48-3.29,5.6-.34.72-1.06,1.14-1.81,1.14h0Z"/>
    <path class="st2" d="M-122.95,385.23c-1,0-1.86-.75-1.98-1.76-.49-4.08-2.44-6.52-2.46-6.55-.7-.85-.58-2.11.27-2.82.85-.71,2.11-.58,2.82.27.11.13,2.71,3.33,3.34,8.62.13,1.1-.65,2.09-1.75,2.22-.08,0-.16.01-.24.01h0Z"/>
    <path class="st2" d="M-107.77,386.17c-.98,0-1.84-.72-1.98-1.73-1.13-8.12-6.3-11.63-6.52-11.78-.92-.61-1.18-1.84-.58-2.76.6-.92,1.83-1.19,2.75-.59.28.18,6.92,4.57,8.31,14.58.15,1.09-.61,2.1-1.71,2.26-.09.01-.19.02-.28.02h.01Z"/>
  </g>
  <g>
    <g>
      <path class="st1" d="M363.78,448.5c-15.35,5.22-33.14,9.07-52.09,9.07-20.86,0-40.54-4.87-57.17-11.12h0c16.63,6.24,36.31,11.12,57.17,11.12,18.95,0,36.74-3.85,52.09-9.07,14.37-4.83,26.58-10.84,35.65-15.97,4.83-2.71,8.75-5.17,11.62-7.08h.02c.14,1.39.25,2.8.34,4.28-.09-1.46-.2-2.89-.34-4.28h-.02c-2.87,1.91-6.79,4.37-11.62,7.08-9.07,5.12-21.27,11.14-35.65,15.97Z"/>
      <path class="st1" d="M564.36,78.27c-1.59,0-3.14.14-4.67.34.41-2.1.64-4.28.64-6.51,0-18.65-15.1-33.76-33.76-33.76s-33.76,15.1-33.76,33.76c0,9.13,3.62,17.38,9.5,23.46l-52.07,48.29c1.55,2.62,2.98,5.28,4.35,7.99,1.37,2.71,2.66,5.44,3.87,8.25,5.56,12.69,9.43,26.24,11.37,40.41l69.86-65.44c6.15,6.61,14.92,10.75,24.67,10.75,18.63,0,33.76-15.1,33.76-33.76s-15.12-33.76-33.76-33.76v-.02Z"/>
      <path class="st1" d="M171.02,143.48l-52.07-48.33c5.88-6.06,9.52-14.33,9.52-23.46,0-18.65-15.12-33.76-33.78-33.76s-33.76,15.1-33.76,33.76c0,2.23.23,4.42.64,6.54-1.53-.23-3.07-.36-4.65-.36-18.65,0-33.78,15.1-33.78,33.76s15.12,33.76,33.78,33.76c9.75,0,18.49-4.15,24.67-10.75l69.72,65.19c1.96-13.92,5.81-27.24,11.27-39.72,2.46-5.72,5.28-11.25,8.43-16.6h0Z"/>
      <path class="st1" d="M511.65,428.87c-9.75,0-18.52,4.15-24.67,10.75l-91.04-85h0c-1,.64-2.03,1.25-3.05,1.84.02.09,4.99,13.76,10.93,36.06,1.75,6.51,3.58,13.73,5.4,21.59.77,3.37,1.41,7.17,1.82,11.34h.02c.14,1.39.25,2.82.34,4.28.27,4.37.3,9.07,0,13.94l38.17,35.42c-5.88,6.08-9.5,14.33-9.5,23.46,0,18.65,15.1,33.76,33.76,33.76s33.76-15.1,33.76-33.76c0-2.23-.23-4.42-.64-6.51,1.53.21,3.07.34,4.67.34,18.63,0,33.76-15.1,33.76-33.76s-15.12-33.76-33.76-33.76h.02Z"/>
      <path class="st1" d="M209.88,423.47c.14-3.48.34-6.56.52-9.11.59-8.27,2.37-17.11,4.53-25.35,4.81-18.24,11.5-33.6,11.5-33.6-.64-.39-1.28-.77-1.91-1.16h-.02l-92.5,84.37c-6.15-6.61-14.92-10.75-24.67-10.75-18.63,0-33.76,15.1-33.76,33.76s15.12,33.76,33.76,33.76c1.59,0,3.14-.14,4.67-.34-.41,2.1-.64,4.28-.64,6.51,0,18.65,15.1,33.76,33.76,33.76s33.78-15.1,33.78-33.76c0-9.13-3.64-17.4-9.52-23.46l40.57-37.63c-.34-6.29-.27-12.05-.07-16.99h0Z"/>
      <path class="st0" d="M458.49,160.08h0c-1.21-2.8-2.48-5.53-3.87-8.25-1.37-2.71-2.82-5.35-4.35-7.97-27.67-47.38-79.88-79.31-139.71-79.31s-111.79,31.75-139.53,78.92c-3.14,5.35-5.97,10.89-8.43,16.6h295.9ZM393.73,116.1c1.37-2.1,4.17-2.71,6.26-1.34.64.41,15.76,10.41,18.93,33.21.34,2.48-1.39,4.78-3.89,5.15-.2.02-.43.05-.64.05-2.23,0-4.19-1.64-4.51-3.94-2.57-18.49-14.35-26.49-14.85-26.83-2.1-1.39-2.69-4.19-1.32-6.29h.02ZM370.34,125.66c1.94-1.62,4.81-1.32,6.42.61.25.3,6.17,7.58,7.61,19.63.3,2.51-1.48,4.76-3.99,5.06-.18,0-.36.02-.55.02-2.28,0-4.24-1.71-4.51-4.01-1.12-9.29-5.56-14.85-5.6-14.92-1.59-1.94-1.32-4.81.61-6.42v.02ZM256.5,141.38c3.76-7.95,8.22-14.01,8.4-14.26,1.5-2.03,4.35-2.44,6.38-.96,2.03,1.5,2.46,4.35.96,6.38-.05.05-4.15,5.65-7.49,12.76-.77,1.64-2.41,2.6-4.12,2.6-.66,0-1.32-.14-1.96-.43-2.28-1.07-3.23-3.8-2.16-6.06v-.02ZM253.18,118.19c1.91,1.62,2.16,4.51.55,6.42-3.64,4.33-13.67,17.22-16.19,24.99-.61,1.94-2.41,3.14-4.33,3.14-.46,0-.93-.07-1.41-.23-2.39-.77-3.71-3.35-2.94-5.74,3.58-11.07,17.31-27.38,17.9-28.06,1.62-1.91,4.49-2.16,6.42-.52h0ZM204.41,139.22c7.9-14.85,23.05-29,23.69-29.61,1.84-1.71,4.71-1.62,6.45.23,1.71,1.84,1.62,4.71-.23,6.45-.14.14-14.69,13.73-21.87,27.22-.82,1.55-2.39,2.41-4.03,2.41-.73,0-1.46-.18-2.14-.55-2.21-1.18-3.05-3.94-1.87-6.17v.02Z"/>
      <path class="st1" d="M458.49,160.08h0c-1.21-2.8-2.51-5.53-3.87-8.25,1.37,2.71,2.66,5.44,3.87,8.22h0v.02Z"/>
      <path class="st6" d="M458.49,160.08H162.59c-5.47,12.48-9.32,25.81-11.27,39.72-.46,3.12-.82,6.29-1.05,9.5h320.52H150.25h320.56c-.23-2.96-.55-5.9-.96-8.81h0c-1.94-14.17-5.81-27.72-11.37-40.41h0Z"/>
      <path class="st1" d="M458.49,160.08c5.56,12.69,9.43,26.24,11.37,40.41h0c-1.94-14.17-5.81-27.72-11.37-40.41h0Z"/>
      <path class="st1" d="M311.69,378.58c-.39.02-.75.02-1.14.02-14.96,0-29.45-2-43.19-5.74l-6.47,37.1c14.87,4.62,32.14,8.02,50.79,8.02v-39.4h0Z"/>
      <path class="st1" d="M311.69,378.58h0v39.4c16.74,0,32.21-2.55,45.74-6.22l-6.61-38.13h0c-12.53,3.14-25.62,4.87-39.13,4.94Z"/>
      <path class="st1" d="M390.96,357.58c-12.41,7.02-25.9,12.46-40.13,16.06l6.61,38.13c15.06-4.05,27.7-9.45,37.1-14.19h0c3.6-1.82,6.72-3.55,9.29-5.06-5.94-22.3-10.91-35.96-10.93-36.06h0c-.64.39-1.28.75-1.94,1.12h0Z"/>
      <path class="st1" d="M226.44,355.42c.75.46,1.53.91,2.3,1.34,11.96,6.95,24.92,12.39,38.63,16.1h0c13.73,3.74,28.22,5.74,43.19,5.74.39,0,.75,0,1.14-.02,13.51-.07,26.6-1.8,39.13-4.94,14.24-3.6,27.72-9.04,40.13-16.06.66-.36,1.3-.73,1.94-1.12,1.02-.59,2.05-1.21,3.05-1.84h0c41.5-25.44,70.24-68.92,74.73-119.17H150.41c4.46,50,32.94,93.27,74.09,118.8h.02-.02.02c.64.39,1.28.77,1.91,1.16h0ZM372.78,247.61c23.1,0,41.8,19.06,41.8,42.55s-18.72,42.55-41.8,42.55-41.8-19.06-41.8-42.55,18.72-42.55,41.8-42.55ZM311.35,330.34c9.43,0,17.08,5.72,17.08,12.78s-7.65,12.78-17.08,12.78-17.08-5.72-17.08-12.78,7.65-12.78,17.08-12.78ZM207.46,290.16c0-23.51,18.72-42.55,41.8-42.55s41.8,19.06,41.8,42.55-18.72,42.55-41.8,42.55-41.8-19.06-41.8-42.55Z"/>
      <path class="st1" d="M392.89,356.46h0c1.02-.59,2.05-1.21,3.05-1.84h0c-1,.64-2.03,1.25-3.05,1.84Z"/>
      <path class="st1" d="M310.55,378.6c.39,0,.75,0,1.14-.02h-1.14c-14.96,0-29.45-2-43.19-5.74h0c13.73,3.74,28.22,5.74,43.19,5.74v.02Z"/>
      <path class="st1" d="M311.69,378.58c13.51-.07,26.6-1.8,39.13-4.94h0c-12.53,3.14-25.62,4.87-39.13,4.94h0Z"/>
      <path class="st1" d="M390.96,357.58c-12.41,7.02-25.9,12.46-40.13,16.06h0c14.24-3.6,27.72-9.04,40.13-16.06.66-.36,1.3-.73,1.94-1.12h0c-.64.39-1.28.75-1.94,1.12h0Z"/>
      <path class="st1" d="M260.9,409.97h0l6.47-37.1c-13.71-3.71-26.67-9.16-38.63-16.1-.77-.43-1.55-.89-2.3-1.34,0,0-6.7,15.35-11.5,33.6,2.62,1.64,5.99,3.62,10.02,5.81,9,4.85,21.32,10.59,35.94,15.15h0Z"/>
      <polygon class="st1" points="260.9 409.97 267.37 372.86 267.37 372.86 260.9 409.97 260.9 409.97"/>
      <path class="st1" d="M254.52,446.45l6.38-36.49c-14.62-4.56-26.95-10.3-35.94-15.15-4.03-2.19-7.4-4.17-10.02-5.81-2.16,8.25-3.94,17.08-4.53,25.35-.18,2.55-.39,5.63-.52,9.11,2.66,1.8,6.38,4.19,10.96,6.9,8.52,4.99,20.09,10.98,33.69,16.08h0Z"/>
      <path class="st1" d="M394.53,397.58c-9.41,4.74-22.05,10.14-37.1,14.19l6.35,36.74c14.37-4.83,26.58-10.84,35.65-15.97,4.83-2.71,8.75-5.17,11.62-7.08-.41-4.17-1.05-7.97-1.82-11.34-1.82-7.86-3.64-15.08-5.4-21.59-2.57,1.5-5.69,3.23-9.29,5.03h0v.02Z"/>
      <path class="st1" d="M311.69,457.57c18.95,0,36.74-3.85,52.09-9.07l-6.35-36.74c-13.53,3.67-29,6.22-45.74,6.22v39.59Z"/>
      <path class="st1" d="M260.9,409.97h0l-6.38,36.49c16.63,6.24,36.31,11.12,57.17,11.12v-39.59c-18.65,0-35.92-3.39-50.79-8.02Z"/>
      <polygon class="st1" points="260.9 409.97 260.9 409.97 260.9 409.97 260.9 409.97 260.9 409.97"/>
      <polygon class="st1" points="260.9 409.97 254.52 446.45 254.52 446.45 260.9 409.97 260.9 409.97"/>
      <path class="st1" d="M411.41,429.74c-.09-1.46-.2-2.89-.34-4.28h-.02c-2.87,1.91-6.79,4.37-11.62,7.08-9.07,5.12-21.27,11.14-35.65,15.97-15.35,5.22-33.14,9.07-52.09,9.07-20.86,0-40.54-4.87-57.17-11.12-13.6-5.1-25.17-11.09-33.69-16.08-4.58-2.71-8.29-5.1-10.96-6.9-.2,4.94-.27,10.71.07,16.99h0c1.84,37.29,17.04,91.81,97.19,91.81s102.06-49.9,104.3-88.6h0c.3-4.87.25-9.57,0-13.94h-.02Z"/>
      <path class="st1" d="M411.41,429.74c.27,4.37.3,9.07,0,13.94h0c.3-4.87.25-9.57,0-13.94Z"/>
      <path class="st0" d="M84.31,209.3c-3.6,0-6.88,1.46-9.22,3.83-2.37,2.37-3.83,5.65-3.83,9.25,0,7.22,5.83,13.07,13.05,13.07h459.43c3.62,0,6.88-1.46,9.22-3.83,2.37-2.37,3.83-5.65,3.83-9.25,0-7.22-5.83-13.07-13.05-13.07H84.31Z"/>
      <ellipse class="st1" cx="249.26" cy="290.16" rx="41.8" ry="42.55"/>
      <ellipse class="st1" cx="372.78" cy="290.16" rx="41.8" ry="42.55"/>
      <ellipse class="st1" cx="311.35" cy="343.12" rx="17.08" ry="12.78"/>
      <path class="st1" d="M206.28,145.39c.68.36,1.41.55,2.14.55,1.64,0,3.21-.87,4.03-2.41,7.17-13.48,21.71-27.08,21.87-27.22,1.84-1.71,1.94-4.6.23-6.45s-4.6-1.94-6.45-.23c-.64.59-15.78,14.76-23.69,29.61-1.18,2.21-.34,4.99,1.87,6.17v-.02Z"/>
      <path class="st1" d="M231.77,152.52c.46.16.93.23,1.41.23,1.91,0,3.71-1.23,4.33-3.14,2.53-7.77,12.55-20.68,16.19-24.99,1.62-1.91,1.39-4.78-.55-6.42-1.91-1.62-4.81-1.39-6.42.52-.59.68-14.33,16.99-17.9,28.06-.77,2.39.55,4.97,2.94,5.74h0Z"/>
      <path class="st1" d="M258.67,147.46c.64.3,1.3.43,1.96.43,1.71,0,3.35-.96,4.12-2.6,3.37-7.11,7.47-12.69,7.49-12.76,1.5-2.03,1.07-4.87-.96-6.38-2.03-1.5-4.87-1.07-6.38.96-.18.25-4.65,6.31-8.4,14.26-1.07,2.28-.11,4.99,2.16,6.06v.02Z"/>
      <path class="st1" d="M375.33,146.98c.27,2.32,2.23,4.01,4.51,4.01.18,0,.36,0,.55-.02,2.51-.3,4.28-2.57,3.99-5.06-1.46-12.07-7.36-19.34-7.61-19.63-1.59-1.94-4.46-2.21-6.42-.61-1.94,1.59-2.21,4.46-.61,6.42.05.05,4.49,5.63,5.6,14.92v-.02Z"/>
      <path class="st1" d="M395.05,122.41c.5.34,12.3,8.31,14.85,26.83.32,2.28,2.28,3.94,4.51,3.94.2,0,.41,0,.64-.05,2.48-.34,4.24-2.64,3.89-5.15-3.17-22.8-18.29-32.8-18.93-33.21-2.1-1.37-4.9-.75-6.26,1.34-1.37,2.1-.77,4.92,1.32,6.29h-.02Z"/>
    </g>
    <g>
      <path class="st2" d="M467.25,207.48l-.89-6.55c-1.86-13.63-5.6-26.92-11.11-39.5-2.36-5.46-5.06-10.79-8.04-15.86l-1.39-2.37,51.64-47.89c-5.28-6.58-8.15-14.7-8.15-23.22,0-20.5,16.68-37.17,37.17-37.17s37.17,16.68,37.17,37.17c0,.92-.04,1.84-.1,2.76.24,0,.48,0,.72,0,20.5,0,37.17,16.68,37.17,37.17s-16.68,37.17-37.17,37.17c-9.12,0-17.95-3.41-24.72-9.44l-72.3,67.73ZM454.47,144.5c2.58,4.59,4.94,9.36,7.04,14.2,4.89,11.16,8.44,22.86,10.6,34.86l67.65-63.38,2.34,2.51c5.8,6.23,13.67,9.66,22.17,9.66,16.73,0,30.34-13.61,30.34-30.34s-13.61-30.34-30.34-30.34c-1.29,0-2.63.1-4.22.31l-4.72.63.91-4.67c.38-1.96.58-3.93.58-5.86,0-16.73-13.61-30.34-30.34-30.34s-30.34,13.61-30.34,30.34c0,7.9,3.03,15.39,8.54,21.09l2.42,2.51-52.63,48.81Z"/>
      <path class="st2" d="M153.67,206.79l-72.13-67.45c-6.82,6.11-15.48,9.44-24.72,9.44-20.51,0-37.19-16.68-37.19-37.17s16.96-37.5,37.89-37.16c-.07-.93-.11-1.85-.11-2.76,0-20.5,16.67-37.17,37.17-37.17s37.19,16.68,37.19,37.17c0,8.52-2.88,16.65-8.17,23.22l51.64,47.93-1.39,2.37c-3.11,5.3-5.88,10.76-8.23,16.22-5.44,12.43-9.15,25.49-11.03,38.85l-.92,6.51ZM81.32,129.79l67.54,63.15c2.16-11.75,5.68-23.23,10.49-34.22,2.11-4.89,4.54-9.79,7.24-14.58l-52.63-48.86,2.43-2.51c5.52-5.69,8.56-13.18,8.56-21.08,0-16.73-13.62-30.34-30.36-30.34s-30.34,13.61-30.34,30.34c0,1.93.19,3.91.57,5.89l.92,4.74-4.78-.72c-1.47-.22-2.82-.33-4.14-.33-16.74,0-30.36,13.61-30.36,30.34s13.62,30.34,30.36,30.34c8.47,0,16.35-3.43,22.17-9.67l2.33-2.5Z"/>
      <path class="st2" d="M473.75,539.73c-20.49,0-37.17-16.68-37.17-37.17,0-8.51,2.87-16.64,8.15-23.22l-36.92-34.25.1-1.61c.36-5.97.24-11.91-.35-17.67-.38-3.84-.97-7.51-1.75-10.93-1.7-7.34-3.51-14.56-5.37-21.47-5.86-21.95-10.8-35.64-10.85-35.78l-.98-2.69,2.48-1.43c.98-.57,1.97-1.16,2.93-1.77l2.23-1.42,90.59,84.58c6.77-6.04,15.61-9.44,24.72-9.44,20.5,0,37.17,16.68,37.17,37.17v3.42h-.18c-1.73,18.9-17.67,33.76-37.01,33.76-.24,0-.48,0-.72,0,.07.92.1,1.85.1,2.76,0,20.49-16.68,37.17-37.17,37.17ZM414.82,442.26l39.56,36.7-2.42,2.51c-5.51,5.7-8.54,13.19-8.54,21.09,0,16.73,13.61,30.34,30.34,30.34s30.34-13.61,30.34-30.34c0-1.95-.19-3.92-.57-5.86l-.92-4.68,4.72.63c1.59.21,2.93.31,4.22.31,16.73,0,30.34-13.61,30.34-30.34v-1.23c-.65-16.16-14-29.11-30.32-29.11-8.49,0-16.36,3.43-22.17,9.66l-2.33,2.5-88.98-83.08c2.02,6.14,5.32,16.65,8.95,30.26,1.88,6.98,3.7,14.28,5.43,21.7.85,3.7,1.49,7.66,1.9,11.78.57,5.59.73,11.35.46,17.14Z"/>
      <path class="st2" d="M145.01,538.72c-20.5,0-37.17-16.68-37.17-37.17,0-.92.04-1.84.1-2.76-.24,0-.48,0-.72,0-20.49,0-37.17-16.68-37.17-37.17s16.68-37.17,37.17-37.17c9.13,0,17.98,3.42,24.75,9.47l91.09-83.08h2.28l5.3,3.21-1.19,2.73c-.07.15-6.65,15.34-11.33,33.1-2.42,9.24-3.91,17.55-4.43,24.73-.18,2.52-.38,5.56-.52,9-.24,5.91-.22,11.36.07,16.67l.09,1.6-39.3,36.45c5.29,6.58,8.17,14.7,8.17,23.22,0,20.5-16.68,37.17-37.19,37.17ZM116.16,491.02l-.92,4.68c-.38,1.94-.57,3.91-.57,5.85,0,16.73,13.61,30.34,30.34,30.34s30.36-13.61,30.36-30.34c0-7.91-3.04-15.39-8.56-21.08l-2.43-2.51,41.96-38.92c-.22-5.02-.22-10.18,0-15.71.14-3.52.34-6.63.53-9.21.54-7.59,2.1-16.33,4.64-25.98,2.56-9.71,5.61-18.54,7.96-24.78l-87.78,80.06-2.3-2.47c-5.72-6.14-13.8-9.66-22.17-9.66-16.73,0-30.34,13.61-30.34,30.34s13.61,30.34,30.34,30.34c1.28,0,2.66-.1,4.22-.31l4.72-.63Z"/>
      <polygon class="st2" points="226.8 356.67 221.97 351.84 226.83 356.65 226.8 356.67"/>
      <path class="st2" d="M463.57,163.5H157.29l2.05-4.77c2.46-5.73,5.37-11.44,8.62-16.98,29.25-49.72,83.84-80.61,142.48-80.61s113.48,31.04,142.66,81c3.11,5.3,5.94,10.89,8.41,16.58l2.06,4.77ZM167.78,156.66h285.29c-1.8-3.79-3.77-7.49-5.87-11.07-27.97-47.88-80.37-77.62-136.77-77.62s-108.57,29.59-136.59,77.24c-2.2,3.75-4.24,7.59-6.07,11.46Z"/>
      <path class="st2" d="M474.38,212.72H146.49l.26-3.66c.22-3.12.57-6.31,1.07-9.75,1.97-13.96,5.85-27.63,11.53-40.6l.9-2.05h300.36l.9,2.05c5.76,13.16,9.67,27.06,11.62,41.31.42,2.95.75,5.99.98,9.02l.28,3.68ZM153.89,205.89h313.07c-.17-1.65-.37-3.3-.6-4.92-1.76-12.91-5.2-25.5-10.23-37.47H164.73c-4.95,11.79-8.36,24.15-10.14,36.78-.28,1.95-.52,3.8-.7,5.61Z"/>
      <path class="st2" d="M314.99,421.4h-3.42c-16.94,0-34.37-2.75-51.81-8.17l-2.87-.89,7.63-43.76,3.62.99c13.71,3.73,27.94,5.62,42.29,5.62.31,0,.61,0,.92-.02l3.63-.23v46.46ZM264.67,407.57c14.65,4.3,29.25,6.64,43.49,6.96v-32.53c-12.93-.17-25.74-1.82-38.18-4.9l-5.31,30.47Z"/>
      <path class="st2" d="M311.58,421.4h-3.42v-46.22l3.4-.02c12.89-.06,25.78-1.69,38.32-4.84l3.57-.9,7.77,44.82-3,.81c-15.51,4.21-31.2,6.34-46.63,6.34ZM314.99,381.94v32.59c12.72-.27,25.62-2.04,38.42-5.28l-5.45-31.45c-10.83,2.47-21.89,3.85-32.97,4.14Z"/>
      <path class="st2" d="M354.59,416.04l-7.79-44.94,3.07-.78c13.78-3.48,26.99-8.77,39.29-15.72.65-.36,1.24-.69,1.83-1.06l3.57-2.18,1.43,3.93c.05.14,5.09,14.09,11.02,36.34l.67,2.52-2.25,1.31c-3.11,1.82-6.3,3.55-9.49,5.14-12.02,6.08-24.72,10.95-37.74,14.46l-3.61.97ZM354.61,376.14l5.43,31.31c11.31-3.29,22.34-7.64,32.84-12.95,2.3-1.15,4.59-2.37,6.85-3.64-3.77-13.89-7.08-24.18-8.84-29.4-11.42,6.29-23.61,11.22-36.28,14.68Z"/>
      <path class="st2" d="M310.44,382.02c-14.96,0-29.79-1.97-44.08-5.86-13.84-3.75-27.12-9.28-39.45-16.44-.76-.42-1.57-.9-2.36-1.38l-1.96-1.18c-42.99-26.67-71.29-72.05-75.7-121.4l-.33-3.72h327.74l-.33,3.72c-4.44,49.66-32.98,95.19-76.35,121.78-.99.63-2.06,1.27-3.13,1.89-.61.37-1.29.76-1.99,1.15-12.79,7.23-26.58,12.75-40.95,16.38-13.07,3.28-26.51,4.98-39.95,5.05-.26.02-.7.02-1.16.02ZM225.76,351.08l2.34,1.41c.71.43,1.45.87,2.19,1.28,11.86,6.89,24.59,12.19,37.86,15.79,13.71,3.73,27.94,5.62,42.29,5.62.32,0,.61,0,.92-.02,13.09-.07,25.98-1.7,38.51-4.85,13.77-3.48,26.99-8.77,39.28-15.72.65-.36,1.24-.69,1.83-1.06,1.06-.61,2.04-1.2,3-1.81,40.5-24.83,67.48-66.8,72.79-112.87H154.08c5.25,45.61,31.83,87.32,71.69,112.22Z"/>
      <rect class="st2" x="150.16" y="208.14" width="320.54" height="2.28"/>
      <path class="st2" d="M263.48,414.39l-3.71-1.16c-12.55-3.91-24.84-9.09-36.55-15.4-3.73-2.03-7.26-4.07-10.21-5.92l-2.13-1.33.64-2.43c4.82-18.29,11.4-33.46,11.67-34.09l1.56-3.58,3.34,2.03c.71.43,1.45.87,2.19,1.28,11.87,6.9,24.59,12.2,37.86,15.79l3.01.82-7.67,44.01ZM218.78,387.44c2.34,1.41,4.96,2.9,7.69,4.38,10.15,5.47,20.78,10.07,31.62,13.69l5.26-30.19c-12.36-3.6-24.24-8.63-35.37-14.98-2.08,5.17-5.98,15.44-9.2,27.1Z"/>
      <path class="st2" d="M257.06,451.1l-3.86-1.45c-11.68-4.38-23.2-9.88-34.21-16.33-5-2.95-8.81-5.45-11.14-7.02l-1.57-1.07.07-1.9c.14-3.53.34-6.64.53-9.22.54-7.59,2.1-16.33,4.64-25.97l1.18-4.5,3.94,2.47c2.86,1.79,6.26,3.76,9.84,5.7,11.31,6.1,23.2,11.11,35.33,14.89l2.86.89-7.6,43.51ZM213.26,421.7c2.25,1.48,5.37,3.47,9.2,5.74,9.46,5.54,19.3,10.35,29.3,14.34l5.15-29.46c-11.55-3.79-22.87-8.65-33.68-14.48-2.16-1.17-4.25-2.35-6.21-3.5-1.77,7.47-2.88,14.28-3.32,20.28-.15,2.04-.31,4.43-.43,7.09Z"/>
      <path class="st2" d="M360.98,453.01l-7.56-43.73,3.01-.81c12.51-3.37,24.78-8.06,36.45-13.94,3.12-1.58,6.18-3.25,9.1-4.96l3.86-2.26,1.16,4.32c1.88,6.98,3.71,14.28,5.43,21.71.85,3.69,1.49,7.66,1.9,11.78l.2,2.04-1.71,1.14c-3.55,2.37-7.65,4.87-11.84,7.22-11.72,6.63-23.91,12.09-36.23,16.23l-3.77,1.27ZM361.21,414.23l5.14,29.73c10.63-3.82,21.13-8.65,31.28-14.39,4.03-2.26,7.3-4.29,9.68-5.82-.37-3.1-.89-6.07-1.53-8.87-1.35-5.85-2.78-11.62-4.24-17.21-1.83,1.01-3.69,1.99-5.58,2.95-11.16,5.62-22.84,10.19-34.76,13.61Z"/>
      <path class="st2" d="M311.58,460.99h-3.42v-46.42h3.42c14.82,0,29.91-2.05,44.84-6.1l3.62-.98,7.49,43.31-2.76.94c-18.06,6.14-35.96,9.25-53.19,9.25ZM314.99,421.37v32.75c14.55-.36,29.59-3.02,44.81-7.93l-5.22-30.18c-13.18,3.29-26.47,5.09-39.59,5.36Z"/>
      <path class="st2" d="M314.99,460.99h-3.42c-18.69,0-38.33-3.81-58.37-11.33l-2.65-.99,7.53-43.11,3.71,1.15c16.78,5.22,33.53,7.87,49.78,7.87h3.42v46.42ZM258.26,444.23c17.12,6.15,33.88,9.46,49.9,9.88v-32.75c-14.65-.32-29.65-2.67-44.68-7.02l-5.22,29.89Z"/>
      <path class="st2" d="M307.02,535.69c-79.26,0-98.46-51.68-100.6-95.04-.3-5.53-.32-11.2-.07-17.33l.25-6.11,5.07,3.43c2.24,1.51,5.92,3.92,10.78,6.79,10.67,6.25,21.83,11.58,33.15,15.82,19.26,7.23,38.09,10.9,55.97,10.9,16.48,0,33.64-2.99,50.99-8.88,11.91-4,23.7-9.28,35.06-15.71,4.08-2.29,7.91-4.63,11.4-6.95l.86-.57h4.12l.34,3.07c.63,6.12.75,12.44.38,18.77h0c-1.59,27.61-15.29,91.82-107.71,91.82ZM213.02,429.67c-.04,3.65.04,7.17.23,10.63,2,40.41,19.89,88.56,93.78,88.56,86.61,0,99.4-59.71,100.89-85.38h0c.24-4.06.26-8.1.07-12.07-2.24,1.38-4.58,2.76-6.99,4.11-11.73,6.63-23.92,12.09-36.23,16.22-18.05,6.13-35.94,9.24-53.18,9.24-18.7,0-38.34-3.81-58.37-11.33-11.68-4.38-23.2-9.88-34.21-16.33-2.24-1.33-4.24-2.55-5.97-3.65Z"/>
      <path class="st2" d="M543.63,240H84.2c-9.71,0-17.61-7.91-17.61-17.63,0-4.71,1.83-9.14,5.16-12.47,3.29-3.32,7.71-5.16,12.45-5.16h459.43c9.71,0,17.61,7.91,17.61,17.63,0,4.71-1.83,9.14-5.16,12.47-3.29,3.32-7.72,5.16-12.45,5.16ZM84.2,213.86c-2.28,0-4.41.88-5.99,2.48-1.63,1.62-2.51,3.77-2.51,6.04,0,4.7,3.81,8.52,8.5,8.52h459.43c2.28,0,4.41-.88,5.99-2.48,1.62-1.62,2.51-3.76,2.51-6.04,0-4.7-3.81-8.52-8.49-8.52H84.2Z"/>
    </g>
    <ellipse class="st2" cx="249.15" cy="290.16" rx="41.8" ry="42.55"/>
    <ellipse class="st2" cx="372.67" cy="290.16" rx="41.8" ry="42.55"/>
    <ellipse class="st2" cx="311.26" cy="343.12" rx="17.08" ry="12.78"/>
    <path class="st2" d="M208.33,145.91c-.73,0-1.46-.18-2.14-.55-2.21-1.18-3.05-3.94-1.87-6.17,7.9-14.85,23.05-29,23.69-29.61,1.84-1.71,4.71-1.62,6.45.23,1.71,1.84,1.62,4.71-.23,6.45-.14.14-14.69,13.73-21.87,27.22-.82,1.55-2.39,2.41-4.03,2.41v.02Z"/>
    <path class="st2" d="M233.09,152.75c-.46,0-.93-.07-1.41-.23-2.39-.77-3.71-3.35-2.94-5.74,3.58-11.07,17.31-27.38,17.9-28.06,1.62-1.91,4.49-2.16,6.42-.52,1.91,1.62,2.16,4.51.55,6.42-3.64,4.33-13.67,17.22-16.19,24.99-.61,1.94-2.41,3.14-4.33,3.14h0Z"/>
    <path class="st2" d="M260.51,147.89c-.66,0-1.32-.14-1.96-.43-2.28-1.07-3.23-3.8-2.16-6.06,3.76-7.95,8.22-14.01,8.4-14.26,1.5-2.03,4.35-2.44,6.38-.96,2.03,1.5,2.46,4.35.96,6.38-.05.05-4.15,5.65-7.49,12.76-.77,1.64-2.41,2.6-4.12,2.6v-.02Z"/>
    <path class="st2" d="M379.75,151.02c-2.28,0-4.24-1.71-4.51-4.01-1.12-9.29-5.56-14.85-5.6-14.92-1.59-1.94-1.32-4.81.61-6.42,1.94-1.62,4.81-1.32,6.42.61.25.3,6.17,7.58,7.61,19.63.3,2.51-1.48,4.76-3.99,5.06-.18,0-.36.02-.55.02v.02Z"/>
    <path class="st2" d="M414.32,153.16c-2.23,0-4.19-1.64-4.51-3.94-2.57-18.49-14.35-26.49-14.85-26.83-2.1-1.39-2.69-4.19-1.32-6.29,1.37-2.1,4.17-2.71,6.26-1.34.64.41,15.76,10.41,18.93,33.21.34,2.48-1.39,4.78-3.89,5.15-.2.02-.43.05-.64.05h.02Z"/>
  </g>
</svg>